HIERARCHY
ROOT hip
{
  OFFSET 0 0 0
  CHANNELS 6 Xposition Yposition Zposition Zrotation Yrotation Xrotation
  JOINT abdomen
  {
    OFFSET 0 20.6881 -0.73152
    CHANNELS 3 Zrotation Xrotation Yrotation
    JOINT chest
    {
      OFFSET 0 11.7043 -0.48768
      CHANNELS 3 Zrotation Xrotation Yrotation
      JOINT neck
      {
        OFFSET 0 22.1894 -2.19456
        CHANNELS 3 Zrotation Xrotation Yrotation
        JOINT head
        {
          OFFSET -0.24384 7.07133 1.2192
          CHANNELS 3 Zrotation Xrotation Yrotation
          JOINT leftEye
          {
            OFFSET 4.14528 8.04674 8.04672
            CHANNELS 3 Zrotation Xrotation Yrotation
            End Site
            {
              OFFSET 1 0 0
            }
          }
          JOINT rightEye
          {
            OFFSET -3.6576 8.04674 8.04672
            CHANNELS 3 Zrotation Xrotation Yrotation
            End Site
            {
              OFFSET 1 0 0
            }
          }
        }
      }
      JOINT rCollar
      {
        OFFSET -2.68224 19.2634 -4.8768
        CHANNELS 3 Zrotation Xrotation Yrotation
        JOINT rShldr
        {
          OFFSET -8.77824 -1.95073 1.46304
          CHANNELS 3 Zrotation Xrotation Yrotation
          JOINT rForeArm
          {
            OFFSET -28.1742 -1.7115 0.48768
            CHANNELS 3 Zrotation Xrotation Yrotation
            JOINT rHand
            {
              OFFSET -22.5879 0.773209 7.07136
              CHANNELS 3 Zrotation Xrotation Yrotation
              JOINT rThumb1
              {
                OFFSET -1.2192 -0.487915 3.41376
                CHANNELS 3 Zrotation Xrotation Yrotation
                JOINT rThumb2
                {
                  OFFSET -3.37035 -0.52449 3.41376
                  CHANNELS 3 Zrotation Xrotation Yrotation
                  End Site
                  {
                    OFFSET -1.78271 -1.18214 1.43049
                  }
                }
              }
              JOINT rIndex1
              {
                OFFSET -7.75947 0.938293 5.60832
                CHANNELS 3 Zrotation Xrotation Yrotation
                JOINT rIndex2
                {
                  OFFSET -2.54057 -0.884171 1.56538
                  CHANNELS 3 Zrotation Xrotation Yrotation
                  End Site
                  {
                    OFFSET -1.62519 -0.234802 1.16502
                  }
                }
              }
              JOINT rMid1
              {
                OFFSET -8.24714 1.18213 3.41376
                CHANNELS 3 Zrotation Xrotation Yrotation
                JOINT rMid2
                {
                  OFFSET -3.10165 -0.590103 1.0647
                  CHANNELS 3 Zrotation Xrotation Yrotation
                  End Site
                  {
                    OFFSET -2.48547 -0.328903 0.83742
                  }
                }
              }
              JOINT rRing1
              {
                OFFSET -8.82822 0.546677 1.51678
                CHANNELS 3 Zrotation Xrotation Yrotation
                JOINT rRing2
                {
                  OFFSET -2.60934 -0.819778 -0.0198488
                  CHANNELS 3 Zrotation Xrotation Yrotation
                  End Site
                  {
                    OFFSET -2.33842 -0.294052 0.168128
                  }
                }
              }
              JOINT rPinky1
              {
                OFFSET -8.27202 -0.0477905 -0.4584
                CHANNELS 3 Zrotation Xrotation Yrotation
                JOINT rPinky2
                {
                  OFFSET -1.82734 -0.647385 -0.700984
                  CHANNELS 3 Zrotation Xrotation Yrotation
                  End Site
                  {
                    OFFSET -1.69225 -0.51767 -0.607171
                  }
                }
              }
            }
          }
        }
      }
      JOINT lCollar
      {
        OFFSET 2.68224 19.2634 -4.8768
        CHANNELS 3 Zrotation Xrotation Yrotation
        JOINT lShldr
        {
          OFFSET 8.77824 -1.95073 1.46304
          CHANNELS 3 Zrotation Xrotation Yrotation
          JOINT lForeArm
          {
            OFFSET 28.1742 -1.7115 0.48768
            CHANNELS 3 Zrotation Xrotation Yrotation
            JOINT lHand
            {
              OFFSET 22.5879 0.773209 7.07136
              CHANNELS 3 Zrotation Xrotation Yrotation
              JOINT lThumb1
              {
                OFFSET 1.2192 -0.487915 3.41376
                CHANNELS 3 Zrotation Xrotation Yrotation
                JOINT lThumb2
                {
                  OFFSET 3.37035 -0.52449 3.41376
                  CHANNELS 3 Zrotation Xrotation Yrotation
                  End Site
                  {
                    OFFSET 1.78271 -1.18214 1.43049
                  }
                }
              }
              JOINT lIndex1
              {
                OFFSET 7.75947 0.938293 5.60832
                CHANNELS 3 Zrotation Xrotation Yrotation
                JOINT lIndex2
                {
                  OFFSET 2.54057 -0.884171 1.56538
                  CHANNELS 3 Zrotation Xrotation Yrotation
                  End Site
                  {
                    OFFSET 1.62519 -0.234802 1.16502
                  }
                }
              }
              JOINT lMid1
              {
                OFFSET 8.24714 1.18213 3.41376
                CHANNELS 3 Zrotation Xrotation Yrotation
                JOINT lMid2
                {
                  OFFSET 3.10165 -0.590103 1.0647
                  CHANNELS 3 Zrotation Xrotation Yrotation
                  End Site
                  {
                    OFFSET 2.48547 -0.328903 0.83742
                  }
                }
              }
              JOINT lRing1
              {
                OFFSET 8.82822 0.546677 1.51678
                CHANNELS 3 Zrotation Xrotation Yrotation
                JOINT lRing2
                {
                  OFFSET 2.60934 -0.819778 -0.0198488
                  CHANNELS 3 Zrotation Xrotation Yrotation
                  End Site
                  {
                    OFFSET 2.33842 -0.294052 0.168128
                  }
                }
              }
              JOINT lPinky1
              {
                OFFSET 8.27202 -0.0477905 -0.4584
                CHANNELS 3 Zrotation Xrotation Yrotation
                JOINT lPinky2
                {
                  OFFSET 1.82734 -0.647385 -0.700984
                  CHANNELS 3 Zrotation Xrotation Yrotation
                  End Site
                  {
                    OFFSET 1.69225 -0.51767 -0.607171
                  }
                }
              }
            }
          }
        }
      }
    }
  }
  JOINT rButtock
  {
    OFFSET -8.77824 4.35084 1.2192
    CHANNELS 3 Zrotation Xrotation Yrotation
    JOINT rThigh
    {
      OFFSET 0 -1.70687 -2.19456
      CHANNELS 3 Zrotation Xrotation Yrotation
      JOINT rShin
      {
        OFFSET 0 -36.8199 0.73152
        CHANNELS 3 Zrotation Xrotation Yrotation
        JOINT rFoot
        {
          OFFSET 0.73152 -45.1104 -5.12064
          CHANNELS 3 Zrotation Xrotation Yrotation
          End Site
          {
            OFFSET -1.1221 -3.69964 12.103
          }
        }
      }
    }
  }
  JOINT lButtock
  {
    OFFSET 8.77824 4.35084 1.2192
    CHANNELS 3 Zrotation Xrotation Yrotation
    JOINT lThigh
    {
      OFFSET 0 -1.70687 -2.19456
      CHANNELS 3 Zrotation Xrotation Yrotation
      JOINT lShin
      {
        OFFSET 0 -36.8199 0.73152
        CHANNELS 3 Zrotation Xrotation Yrotation
        JOINT lFoot
        {
          OFFSET -0.73152 -45.1104 -5.12064
          CHANNELS 3 Zrotation Xrotation Yrotation
          End Site
          {
            OFFSET 1.1221 -3.69964 12.103
          }
        }
      }
    }
  }
}
MOTION
Frames:	7
Frame Time:	0.03333
0.0 0.0 0.0 0.0 0.0 0.0 0.0 0.0 0.0 0.0 0.0 0.0 0.0 0.0 0.0 0.0 0.0 0.0 0.0 0.0 0.0 0.0 0.0 0.0 0.0 0.0 0.0 0.0 0.0 0.0 0.0 0.0 0.0 0.0 0.0 0.0 0.0 0.0 0.0 0.0 0.0 0.0 0.0 0.0 0.0 0.0 0.0 0.0 0.0 0.0 0.0 0.0 0.0 0.0 0.0 0.0 0.0 0.0 0.0 0.0 0.0 0.0 0.0 0.0 0.0 0.0 0.0 0.0 0.0 0.0 0.0 0.0 0.0 0.0 0.0 0.0 0.0 0.0 0.0 0.0 0.0 0.0 0.0 0.0 0.0 0.0 0.0 0.0 0.0 0.0 0.0 0.0 0.0 0.0 0.0 0.0 0.0 0.0 0.0 0.0 0.0 0.0 0.0 0.0 0.0 0.0 0.0 0.0 0.0 0.0 0.0 0.0 0.0 0.0 0.0 0.0 0.0 0.0 0.0 0.0 0.0 0.0 0.0 0.0 0.0 0.0 0.0 0.0 0.0 0.0 0.0 0.0
0.082 52.4622 0.06 -176.166949 -74.751621 -177.506836 -2.719974 4.06716 -146.184628 2.14031 7.140623 140.857704 12.868344 22.861468 110.704523 -28.05947 14.904741 -81.184383 0.00326 0.0 0.001796 0.00326 0.0 0.001796 0.118386 -0.714091 -0.15731 52.35079 -6.235476 -46.091503 -179.913629 -37.115058 37.352406 -137.313057 34.807316 122.822645 -176.599241 -14.212797 89.690551 109.883834 -66.476264 83.130131 60.4592 -70.524743 15.708477 17.390003 -1.006266 -5.542641 89.0347 -81.393687 59.757387 2.970881 0.154647 0.198959 -145.1213 1.974627 -179.748482 -155.599707 0.211208 -179.257622 12.255155 41.424504 10.279653 1.726227 -0.023209 -0.296488 129.05125 55.592375 -132.879796 50.157574 -8.441762 28.877002 173.149145 -3.807924 108.953074 13.416901 -44.228856 11.374431 2.812949 2.754604 -0.498242 10.554311 11.151618 -10.68326 19.169839 24.11465 -13.381224 -52.78358 -49.707435 -12.111102 -6.532214 -20.415043 2.718918 85.972699 64.232673 -77.753154 74.840731 72.962734 -92.827313 61.422986 -82.139982 78.419616 131.317228 -20.050854 128.881198 146.705282 11.074271 141.763908 -179.959629 75.749433 -0.033216 154.609949 1.819248 -91.049819 -113.203131 -14.689106 -58.470197 67.68851 -9.116386 147.461898 179.998545 75.750472 -0.0 -139.517346 1.723044 -90.738277 -109.325833 10.709321 -164.908196 -163.190132 67.650101 50.360809
0.11349999999999999 52.245200000000004 0.089 -176.17473 -74.850646 -177.416757 -4.062937 8.460831 0.431056 3.570084 -11.545343 -5.173426 3.767832 30.765192 -176.506583 -2.846271 39.167919 -155.245603 0.000532 0.0 0.002347 0.000532 0.0 0.002347 -14.1478 43.061697 15.996066 23.344866 -81.916495 -59.669354 127.645823 -0.087248 -17.687221 -41.706433 29.884593 23.087679 -171.707396 -9.38793 89.948483 32.582907 -65.543534 26.588789 37.214647 -57.918193 -0.644187 -171.367771 -35.895083 110.216542 -159.364775 -2.685663 142.59711 -128.918743 51.838188 118.067008 -132.480751 54.103285 155.534227 7.002529 15.772123 -4.94415 0.097986 0.258504 0.09089 -5.235642 -17.922343 -6.861232 -3.191871 -25.83896 5.07355 -64.51589 -8.990348 -67.369156 -173.261034 15.339462 -74.868767 141.304452 34.427566 -124.08076 -51.059961 -41.204152 -12.855992 52.57198 34.388145 -23.971597 162.915972 -37.929439 -122.632159 -0.641923 22.916146 3.951397 158.521907 -0.191937 -142.145831 163.269705 -4.789034 -142.969489 0.007497 3.559466 -1.116734 156.767099 -25.081861 -174.790019 25.539362 -38.086973 24.598883 -21.743818 61.246391 -8.94252 179.994832 75.750266 0.003536 154.452451 1.408782 -92.944384 -114.175009 -12.488012 -93.685895 107.424159 6.319879 162.951556 -179.98551 75.74892 -0.009914 -140.585522 2.469842 -1.094221 143.299697 76.368484 -112.4837 24.101314 -39.370686 -19.347639
0.1389 52.0389 0.1082 -176.291575 -74.931985 -177.243378 -4.040439 8.503758 0.431679 3.591536 -11.601134 -5.270475 -8.361009 21.689364 -81.280069 32.120774 11.879502 106.161117 -0.00037 0.0 -0.00062 -0.00037 0.0 -0.00062 3.22272 -26.203314 -5.140872 83.88736 28.750079 -73.037976 -88.710483 -31.607897 75.983527 -167.135736 -41.232283 161.659718 88.927872 -50.831141 37.600405 -25.315225 -10.874302 -16.971948 169.567333 -65.842241 109.956705 -9.32135 36.138141 5.44442 68.982027 -80.154679 40.57616 80.710515 -77.828812 52.447761 -145.100714 -1.521472 -178.648699 -73.594537 -78.000055 -95.24016 -1.147653 -2.914998 -1.064252 -142.407653 -2.813333 -139.649393 157.881879 -65.637901 -175.444212 145.981554 80.862288 140.20756 -47.674984 -54.179653 -111.184974 17.733588 -19.599868 4.405487 78.031059 38.688967 -42.412419 130.534751 -22.438168 -81.676698 -10.746157 -19.04825 4.724936 59.501271 48.732882 -47.222146 57.867555 59.218107 -50.525624 -2.854134 1.675417 -0.34433 0.001061 0.063999 -0.019052 156.342241 -46.647277 -177.606914 -1.480903 4.003721 -1.361795 147.917005 13.352892 144.088577 -179.999945 75.749776 -0.0 154.277886 1.16069 -88.285054 -100.985736 -10.274637 89.630601 -105.590384 -10.205642 -4.487085 0.000926 -0.001167 -0.0 72.654314 -47.028968 -20.8336 -100.917378 6.103718 77.13755 34.000364 -18.286444 20.147433
0.15969999999999998 51.8396 0.1394 -176.239761 -75.025235 -177.250724 -5.335571 8.164845 33.328918 -2.064301 -12.107546 -38.803213 12.94439 20.424369 96.668519 -27.980885 7.848668 -68.98119 0.002055 0.0 0.001603 0.002055 0.0 0.001603 -14.148139 43.061538 15.99668 -97.336681 78.90992 178.952871 -73.219049 78.191568 -63.33146 -146.858627 23.914158 133.219426 -78.030753 38.68919 42.412605 -153.067874 -34.533874 82.908363 -166.822661 -43.97335 122.062484 60.77055 -61.787442 9.966647 -17.368825 35.632459 12.95397 27.228433 -57.547451 4.851434 -145.118973 0.309315 -179.22733 11.93451 52.756341 -2.715456 -11.662969 -23.130982 -11.069631 -75.668497 -54.759352 -75.801547 150.168376 21.535288 -155.2755 0.710961 11.559806 53.238255 -41.764734 -57.733151 72.794174 134.42894 40.217066 -117.011604 94.517861 37.864812 -54.093194 97.148435 -6.727576 -65.688137 -37.219341 -57.91662 0.639238 -17.143803 -0.940882 4.189415 148.318999 24.247902 -135.132219 -166.246629 -64.913293 -131.517432 0.014381 -1.323351 0.414587 23.277978 72.960251 -36.412365 146.22641 15.469929 142.748471 114.723085 -40.654805 112.938235 -179.98223 75.748776 -0.01568 152.95939 1.936875 -0.0 -126.186981 69.869071 87.746168 111.963213 20.084545 5.010635 0.000853 0.001172 0.0 70.93498 -47.90895 75.615868 153.543212 73.334994 126.63342 169.955059 49.775159 -71.923492
0.1771 51.6566 0.16219999999999998 -176.52494 -75.089629 -176.896939 -4.073741 8.619909 0.0 3.712992 -11.660233 -4.969308 12.604321 18.579089 86.540807 -27.053478 2.75284 -60.133548 0.002599 0.0 0.000845 0.002164 0.0 0.00037 0.117946 -0.714037 -0.158136 -62.173331 -36.295624 -115.671858 -168.164145 34.839301 -80.857737 -16.381837 -55.42657 -16.005078 -178.928063 -16.453419 89.422479 -86.811404 13.100114 31.070445 -19.170327 24.114717 13.380619 -163.282203 -12.016333 110.587347 23.901783 -61.334192 1.39852 -163.763627 -5.697337 143.333452 -69.299318 72.94529 87.017969 -159.840443 0.957205 176.06023 -125.483424 -28.273629 -123.237172 27.236534 66.627363 5.076147 9.651523 34.836246 -11.198945 -87.625648 -41.251699 -123.311166 -59.731334 -14.011443 -94.880135 25.90967 7.794206 -5.36841 0.543079 0.536621 -0.085362 136.842111 -39.371913 -118.299511 129.578233 16.761548 -108.78554 -63.270105 -63.87049 -17.419104 -173.120297 -66.297449 -137.611301 -80.818764 -77.74009 -52.543286 0.000907 -0.018739 0.004169 155.443787 -1.617771 -172.046542 111.960921 -40.576612 110.002291 -11.504808 24.602753 -4.387868 -0.000305 -0.000191 0.000392 -61.600574 -58.846771 -65.169494 -145.30693 70.339451 -124.377606 -34.702293 -7.124996 -90.52829 0.0 0.000111 -0.001893 71.455158 -47.819552 66.583452 146.269988 69.935841 -67.388329 -48.990549 23.387211 -63.993039
0.1992 51.479200000000006 0.1828 -176.649413 -75.167723 -176.740132 -4.130709 8.683702 -0.0 3.738766 -11.688761 -4.990595 -6.010867 27.256739 -117.595083 26.468356 28.667399 139.241769 0.004238 0.0 0.000615 -0.001432 -0.0 0.001353 -158.464668 -30.011919 166.911897 109.071121 -27.058502 149.619368 26.82826 -17.29532 116.850306 -19.194605 -24.410841 -4.714013 -174.193639 -11.857175 89.870915 9.495627 -60.232204 11.356729 5.922404 -10.174304 -2.968544 -165.327371 -20.767819 109.853181 173.124289 -66.297867 137.615047 -164.719173 -8.581424 143.426762 0.00564 1.770655 0.558033 -156.542264 -21.692399 174.398851 -140.975016 -0.020998 -138.01817 16.407291 41.576194 5.930671 158.515433 -30.70231 -167.037597 -113.10075 49.847843 63.691882 -167.510438 14.08349 -76.145596 137.417008 38.143373 -119.913957 158.449907 3.763559 -88.550801 -89.44743 -60.386794 -64.524802 50.385608 40.82689 -40.024583 170.90612 -20.808615 -111.988229 -23.904045 -61.333794 -1.399051 163.654731 -5.357045 -143.297005 -0.005359 1.770351 -0.556822 -9.016795 13.406504 -1.765964 150.580746 31.03454 146.360755 -14.813296 38.573809 -5.691821 -179.97547 75.75094 -0.016784 152.62627 -1.007576 -180.0 165.526561 -70.807585 76.587951 179.526049 13.883165 94.357272 179.997558 75.75124 0.001671 -140.42132 1.123115 -0.0 -176.72563 69.412584 49.437732 18.678514 40.606298 123.755515
